<svg width="43" height="41" viewBox="0 0 43 41" fill="none" xmlns="http://www.w3.org/2000/svg">
<path d="M14.3825 33.0131C14.3825 33.1827 14.1831 33.3183 13.9317 33.3183C13.6456 33.3438 13.4462 33.2081 13.4462 33.0131C13.4462 32.8436 13.6456 32.7079 13.897 32.7079C14.1571 32.6825 14.3825 32.8181 14.3825 33.0131ZM11.6863 32.6316C11.6256 32.8012 11.799 32.9962 12.0591 33.047C12.2845 33.1318 12.5446 33.047 12.5966 32.8775C12.6486 32.7079 12.4839 32.5129 12.2238 32.4366C11.9984 32.3773 11.747 32.4621 11.6863 32.6316ZM15.5181 32.4875C15.2667 32.5469 15.0933 32.7079 15.1194 32.9029C15.1454 33.0725 15.3708 33.1827 15.6308 33.1234C15.8823 33.064 16.0556 32.9029 16.0296 32.7334C16.0036 32.5723 15.7696 32.4621 15.5181 32.4875ZM21.2226 0C9.19819 0 0 8.92728 0 20.6862C0 30.0882 6.05121 38.1338 14.6946 40.9655C15.8042 41.1604 16.1944 40.4907 16.1944 39.9396C16.1944 39.414 16.1683 36.5145 16.1683 34.7342C16.1683 34.7342 10.0998 36.0059 8.8254 32.2077C8.8254 32.2077 7.8371 29.7406 6.41532 29.1048C6.41532 29.1048 4.43004 27.7738 6.55403 27.7992C6.55403 27.7992 8.7127 27.9688 9.9004 29.9865C11.799 33.259 14.9806 32.3179 16.2204 31.7584C16.4198 30.4019 16.9833 29.4609 17.6075 28.9013C12.7613 28.3757 7.87177 27.689 7.87177 19.5332C7.87177 17.2018 8.53065 16.0318 9.91774 14.5397C9.69234 13.9886 8.95544 11.7165 10.1431 8.78316C11.955 8.23209 16.125 11.0722 16.125 11.0722C17.8589 10.5974 19.7228 10.3516 21.5694 10.3516C23.4159 10.3516 25.2798 10.5974 27.0137 11.0722C27.0137 11.0722 31.1837 8.22361 32.9956 8.78316C34.1833 11.725 33.4464 13.9886 33.221 14.5397C34.6081 16.0403 35.4577 17.2102 35.4577 19.5332C35.4577 27.7144 30.3514 28.3672 25.5052 28.9013C26.3028 29.5711 26.979 30.8428 26.979 32.8351C26.979 35.6922 26.953 39.2275 26.953 39.9227C26.953 40.4737 27.3518 41.1435 28.4528 40.9485C37.1222 38.1338 43 30.0882 43 20.6862C43 8.92728 33.247 0 21.2226 0ZM8.42661 29.2404C8.31391 29.3252 8.33992 29.5202 8.4873 29.6813C8.62601 29.817 8.8254 29.8763 8.9381 29.7661C9.05081 29.6813 9.0248 29.4863 8.87742 29.3252C8.73871 29.1896 8.53931 29.1302 8.42661 29.2404ZM7.49032 28.5537C7.42964 28.6639 7.51633 28.7996 7.68972 28.8844C7.82843 28.9692 8.00181 28.9437 8.0625 28.825C8.12319 28.7148 8.03649 28.5792 7.8631 28.4944C7.68972 28.4435 7.55101 28.469 7.49032 28.5537ZM10.2992 31.5719C10.1605 31.6821 10.2125 31.9364 10.4119 32.0975C10.6113 32.2925 10.8627 32.3179 10.9754 32.1823C11.0881 32.0721 11.0361 31.8177 10.8627 31.6567C10.672 31.4617 10.4119 31.4362 10.2992 31.5719ZM9.31089 30.3256C9.17218 30.4104 9.17218 30.6308 9.31089 30.8258C9.4496 31.0208 9.68367 31.1056 9.79637 31.0208C9.93508 30.9106 9.93508 30.6902 9.79637 30.4952C9.675 30.3002 9.4496 30.2154 9.31089 30.3256Z" fill="white"/>
</svg>
