<svg width="39" height="38" viewBox="0 0 39 38" fill="none" xmlns="http://www.w3.org/2000/svg">
<path d="M8.72973 38H0.644196V12.6293H8.72973V38ZM4.68261 9.16855C2.09712 9.16855 0 7.0819 0 4.56265C1.85058e-08 3.35256 0.493345 2.19203 1.37151 1.33637C2.24967 0.480706 3.44071 0 4.68261 0C5.92452 0 7.11556 0.480706 7.99372 1.33637C8.87188 2.19203 9.36522 3.35256 9.36522 4.56265C9.36522 7.0819 7.26723 9.16855 4.68261 9.16855ZM38.9913 38H30.9232V25.6497C30.9232 22.7064 30.8622 18.9317 26.7194 18.9317C22.5155 18.9317 21.8713 22.1296 21.8713 25.4377V38H13.7945V12.6293H21.5492V16.0901H21.6624C22.7419 14.0968 25.3787 11.9932 29.3127 11.9932C37.4957 11.9932 39 17.2437 39 24.0635V38H38.9913Z" fill="white"/>
</svg>
